<mxfile host="app.diagrams.net" modified="2023-12-23T08:33:30.029Z" agent="Mozilla/5.0 (Macintosh; Intel Mac OS X 10_15_7) AppleWebKit/537.36 (KHTML, like Gecko) Chrome/120.0.0.0 Safari/537.36" version="22.1.11" etag="uBkokpETfy7yYSwvkWZy" type="github">
  <diagram name="Page-1" id="Uqt_bUVmeRGT2E06NwF1">
    <mxGraphModel>
      <root>
        <mxCell id="0" />
        <mxCell id="1" parent="0" />
      </root>
    </mxGraphModel>
  </diagram>
</mxfile>
